<svg id="Calque_1" data-name="Calque 1" xmlns="http://www.w3.org/2000/svg" viewBox="0 0 396.01 307"><defs><style>.cls-1{fill:#862830;}</style></defs><title>pictoMess</title><path class="cls-1" d="M199.66,353H29.18c-18.74,0-27.47-8.61-27.48-27.51q-.08-125.89,0-251.78C1.7,54.58,10.46,46,29.59,46H369.95c19,0,27.71,8.71,27.71,27.82q0,125.89,0,251.78c0,18.63-8.8,27.4-27.52,27.4ZM373.39,86.19c-4.45,3.32-7.69,5.62-10.82,8.09q-73.83,58.18-147.65,116.35c-12.85,10.1-17.8,9.95-30.48,0Q110.12,152.06,35.83,93.5c-2.76-2.18-5.72-4.11-9.48-6.8,0,3.23,0,5.2,0,7.17q-.2,96.75-.38,193.5c0,10.31-.16,20.63.3,30.92.35,7.8,3.25,10.19,11.08,10.6,1.82.1,3.64,0,5.46,0H355.23c16.63,0,18.16-1.56,18.16-18.49q0-108,0-216Zm-25-14-.55-1.29H49.9c2.57,2.18,4,3.47,5.51,4.66q68.21,53.94,136.43,107.86c7.87,6.22,7.9,6.2,15.89-.14Q264,138.65,320.25,94C329.55,86.66,339,79.46,348.37,72.19Z" transform="translate(-1.65 -46)"/></svg>