<?xml version="1.0" encoding="utf-8"?>
<!-- Generator: Adobe Illustrator 21.0.0, SVG Export Plug-In . SVG Version: 6.00 Build 0)  -->
<svg version="1.1" id="Calque_1" xmlns="http://www.w3.org/2000/svg" xmlns:xlink="http://www.w3.org/1999/xlink" x="0px" y="0px"
	 viewBox="0 0 64 64" style="enable-background:new 0 0 64 64;" xml:space="preserve">
<style type="text/css">
	.st0{fill:#FFFFFF;}
</style>
<path class="st0" d="M28.4,16.2c0.7,0,1.2-0.5,1.2-1.2v-1.2c0-0.7-0.5-1.2-1.2-1.2s-1.2,0.5-1.2,1.2V15
	C27.2,15.7,27.7,16.2,28.4,16.2z M35.6,16.2c0.7,0,1.2-0.5,1.2-1.2v-1.2c0-0.7-0.5-1.2-1.2-1.2s-1.2,0.5-1.2,1.2V15
	C34.4,15.7,35,16.2,35.6,16.2z M28.4,19.8c0,0.7,0.5,1.2,1.2,1.2h0.9c-0.3,0.5-0.7,0.9-1.2,1.2L29,22.3c-0.6,0.3-0.8,1-0.5,1.6
	s1,0.8,1.6,0.5l0.3-0.1C31,24,31.6,23.6,32,23c0.4,0.5,1,1,1.6,1.3l0.3,0.1c0.6,0.3,1.3,0.1,1.6-0.5s0.1-1.3-0.5-1.6l0,0l-0.3-0.1
	c-0.5-0.3-0.9-0.7-1.2-1.2h0.9c0.7,0,1.2-0.5,1.2-1.2s-0.5-1.2-1.2-1.2h-4.8C28.9,18.6,28.4,19.2,28.4,19.8z"/>
<path class="st0" d="M49.5,34.4c-0.1-0.1-0.1-0.1-0.2-0.2l-9.8-7.4c4.5-3.6,5.8-9.9,3.1-15c2.6-1.5,3.4-4.9,1.8-7.4
	C42.9,1.8,39.5,1,37,2.6c-1.2,0.7-2,1.8-2.4,3.1c-1.7-0.4-3.6-0.4-5.3,0c-0.8-2.9-3.8-4.5-6.7-3.7s-4.5,3.8-3.7,6.7
	c0.4,1.3,1.2,2.4,2.4,3.1c-2.7,5.1-1.4,11.3,3,14.9l-9.8,7.4c-0.1,0.1-0.1,0.1-0.2,0.2c-1.7,2-1.5,5.1,0.6,6.8
	c0.9,0.7,2,1.1,3.1,1.1c0.1,0,0.3,0,0.4,0c1.3-0.1,2.4-0.7,3.2-1.6l1.8-1.9c-0.2,0.7-0.3,1.4-0.6,2.1c-0.4,1.1-0.5,2.3-0.2,3.5
	c0.1,0.3,0.1,0.6,0.2,0.9L20.4,57c-0.7,2.7,1,5.4,3.7,6.1c0.4,0.1,0.8,0.2,1.2,0.2c2.6,0,4.8-2,5-4.6L31,50h1.6l0.7,8.7
	c0.2,2.6,2.4,4.6,5,4.6c2.8,0,5-2.3,5-5c0-0.4,0-0.8-0.1-1.2l-2.4-11.8c0.1-0.3,0.2-0.6,0.2-0.8c0.2-1.2,0.2-2.4-0.2-3.5
	c-0.2-0.7-0.4-1.4-0.6-2l1.6,1.7c0.8,1,2,1.6,3.3,1.7c0.1,0,0.3,0,0.4,0c2.7,0,4.8-2.2,4.8-4.8C50.7,36.3,50.3,35.2,49.5,34.4
	L49.5,34.4z M39.8,4.2c1.7,0,3,1.3,3,3c0,1.1-0.6,2.1-1.5,2.6c-1.2-1.4-2.7-2.6-4.4-3.4C37.3,5.1,38.5,4.2,39.8,4.2z M21.2,7.2
	c0-1.7,1.4-3,3.1-3c1.3,0,2.5,0.9,2.9,2.2c-1.7,0.8-3.2,1.9-4.4,3.4C21.7,9.3,21.2,8.3,21.2,7.2z M22.4,17.4c0-5.3,4.3-9.6,9.6-9.6
	s9.6,4.3,9.6,9.6S37.3,27,32,27C26.7,27.1,22.4,22.7,22.4,17.4z M19.9,39c-0.4,0.5-1,0.8-1.6,0.8c-1.3,0.1-2.5-0.9-2.6-2.2
	c0-0.6,0.1-1.2,0.5-1.7l8.3-6.3L24,34.7L19.9,39z M28.1,58.5c-0.1,1.4-1.3,2.4-2.6,2.4c-0.8,0-1.6-0.4-2.1-1
	c-0.5-0.7-0.7-1.5-0.5-2.3l1.9-9.4c1.1,1,2.5,1.6,4,1.7L28.1,58.5z M34.6,47.6h-5.2c-2.5,0-4.5-2-4.5-4.5c0-0.5,0.1-1,0.2-1.4
	c0.5-1.5,0.9-3.1,1-4.7l0.9-8.5c3.1,1.4,6.8,1.4,9.9,0l0.9,8.5c0.2,1.6,0.5,3.2,1,4.7c0.8,2.3-0.5,4.9-2.8,5.6
	C35.5,47.5,35.1,47.6,34.6,47.6z M41.1,57.7c0.4,1.4-0.5,2.8-1.9,3.2C39,61,38.8,61,38.6,61c-1.4,0-2.5-1.1-2.6-2.4L35.3,50
	c1.5-0.1,2.9-0.7,4-1.8L41.1,57.7z M47.4,39.3c-0.5,0.4-1.1,0.6-1.8,0.6C45,39.8,44.4,39.5,44,39l-4-4.2l-0.5-5.1l8.3,6.3
	C48.6,37,48.4,38.5,47.4,39.3L47.4,39.3z"/>
<path class="st0" d="M34.1,39.5c-0.5-0.5-1.2-0.5-1.7,0L32,39.8l-0.4-0.4c-0.5-0.5-1.2-0.4-1.7,0c-0.5,0.5-0.5,1.2,0,1.7l0.4,0.4
	l-0.4,0.4c-0.5,0.5-0.5,1.2,0,1.7s1.2,0.5,1.7,0l0,0l0.4-0.4l0.4,0.4c0.5,0.5,1.2,0.4,1.7,0c0.5-0.5,0.5-1.2,0-1.7l-0.4-0.4l0.4-0.4
	C34.5,40.7,34.5,39.9,34.1,39.5z"/>
</svg>
