<?xml version="1.0" encoding="utf-8"?>
<!-- Generator: Adobe Illustrator 21.0.0, SVG Export Plug-In . SVG Version: 6.00 Build 0)  -->
<svg version="1.1"
	 id="svg2" xmlns:cc="http://creativecommons.org/ns#" xmlns:dc="http://purl.org/dc/elements/1.1/" xmlns:rdf="http://www.w3.org/1999/02/22-rdf-syntax-ns#" xmlns:svg="http://www.w3.org/2000/svg"
	 xmlns="http://www.w3.org/2000/svg" xmlns:xlink="http://www.w3.org/1999/xlink" x="0px" y="0px" viewBox="0 0 47.5 47.5"
	 style="enable-background:new 0 0 47.5 47.5;" xml:space="preserve">
<style type="text/css">
	.st0{clip-path:url(#SVGID_2_);}
	.st1{fill:#7F7F7F;}
	.st2{fill:#CCD6DD;}
	.st3{fill:#E1E8ED;}
	.st4{fill:#FFFFFF;}
</style>
<g id="g10" transform="matrix(1.25,0,0,-1.25,0,47.5)">
	<g id="g12">
		<g>
			<g>
				<defs>
					<rect id="SVGID_1_" x="-10.7" y="-10.7" width="59.4" height="59.4"/>
				</defs>
				<clipPath id="SVGID_2_">
					<use xlink:href="#SVGID_1_"  style="overflow:visible;"/>
				</clipPath>
				<g id="g14" class="st0">
					<g id="g20" transform="translate(36,11)">
						<path id="path22" class="st1" d="M0,0c0-2.2-1.8-4-4-4h-26c-2.2,0-4,1.8-4,4v19.7c0,2.2,5.8,6.3,8,6.3h20.6
							c3.1,0,5.4-2.3,5.4-5.4C0,20.6,0,0,0,0z"/>
					</g>
					<g id="g24" transform="translate(34,7)">
						<path id="path26" class="st2" d="M0,0c0-2.2-1.8-4-4-4h-22c-2.2,0-4,1.8-4,4v24c0,4.1,0,4,5,4h21c2.2,0,4-1.8,4-4V0z"/>
					</g>
					<g id="g28" transform="translate(32,6)">
						<path id="path30" class="st3" d="M0,0c0-1.7-1.3-3-3-3h-24c-1.7,0-3,1.3-3,3v24c0,1.7,1.3,3,3,3h24c1.7,0,3-1.3,3-3V0z"/>
					</g>
					<g id="g32" transform="translate(32,5)">
						<path id="path34" class="st1" d="M0,0c0-2.2-1.8-4-4-4h-21c-2.2,0-4,1.8-4,4v22c0,2.2,1.8,4,4,4h21c2.2,0,4-1.8,4-4V0z"/>
					</g>
					<g id="g36" transform="translate(30,5)">
						<path id="path38" class="st4" d="M0,0c0-2.2-1.8-4-4-4h-19c-2.2,0-4,1.8-4,4v20c0,2.2,1.8,4,4,4h19.3c2.2,0,3.7-1.5,3.7-3.7
							C0,20.3,0,0,0,0z"/>
					</g>
					<g id="g40" transform="translate(7,31)">
						<path id="path42" class="st1" d="M0,0c-1.7,0-1.7,1.9-1,2.8C-0.2,3.7,1.1,4,3.4,4H5v2H2.3C-1.7,6-5,3.5-5,0.6V-26
							c0-2.2,1.8-4,4-4h2V0H0z"/>
					</g>
				</g>
			</g>
		</g>
	</g>
</g>
</svg>
