<?xml version="1.0" encoding="utf-8"?>
<!-- Generator: Adobe Illustrator 21.0.0, SVG Export Plug-In . SVG Version: 6.00 Build 0)  -->
<svg version="1.1" id="Calque_1" xmlns="http://www.w3.org/2000/svg" xmlns:xlink="http://www.w3.org/1999/xlink" x="0px" y="0px"
	 viewBox="0 0 24 24" style="enable-background:new 0 0 24 24;" xml:space="preserve">
<style type="text/css">
	.st0{fill:none;}
	.st1{fill:#662381;}
</style>
<path class="st0" d="M0,0h24v24H0V0z"/>
<path class="st1" d="M13,3.1V10h8c0-4-3-7.4-6.9-7.9C13.5,2,13,2.5,13,3.1z M19.3,15.9c1.1-1.4,1.7-3.1,1.7-4.9H6.4L5.8,9.6
	C5.6,9.2,5.2,9,4.9,9H3c-0.5,0-1,0.4-1,1s0.5,1,1,1h1.2c0,0,1.9,4.1,2.1,4.4c-1.3,0.7-2.1,2.3-1.7,3.9c0.3,1.3,1.3,2.3,2.6,2.5
	c2.1,0.5,4-1,4.3-2.9h2.1c0.3,1.9,2.1,3.4,4.2,2.9c1.3-0.3,2.3-1.3,2.6-2.5C20.7,18,20.2,16.7,19.3,15.9z M8,20
	c-0.8,0-1.5-0.7-1.5-1.5S7.2,17,8,17s1.5,0.7,1.5,1.5S8.8,20,8,20z M17,20c-0.8,0-1.5-0.7-1.5-1.5S16.2,17,17,17s1.5,0.7,1.5,1.5
	S17.8,20,17,20z"/>
</svg>
