<?xml version="1.0" encoding="utf-8"?>
<!-- Generator: Adobe Illustrator 21.0.0, SVG Export Plug-In . SVG Version: 6.00 Build 0)  -->
<svg version="1.1" id="Calque_1" xmlns="http://www.w3.org/2000/svg" xmlns:xlink="http://www.w3.org/1999/xlink" x="0px" y="0px"
	 viewBox="0 0 512 512" style="enable-background:new 0 0 512 512;" xml:space="preserve">
<style type="text/css">
	.st0{fill:#662381;}
</style>
<path class="st0" d="M448.3,329.5l-92.6-25.8c-12.1-3.4-21.7-12.9-25.2-25c-9-31.1-36.3-53.3-68.5-56v-34.4c0-3.9-3.1-7-7-7
	c-17.3,0-32-14.8-32-32.3c0.1-18,14.8-32.4,32.7-32.3c13.5-0.1,25.5,8.4,30.1,21.1c1.4,3.6,5.4,5.5,9,4.1c3.6-1.3,5.4-5.3,4.1-8.9
	c-6.5-18.2-23.9-30.3-43.2-30.2c-25.7-0.1-46.6,20.7-46.7,46.3c0.1,22.7,16.6,42.1,39,45.8v28.2c-31.4,3.4-57.7,25.4-66.5,55.8
	c-3.5,12.1-13,21.6-25.2,25l-92.6,25.8c-24.6,6.9-41.6,29.3-41.7,54.9v18.1c0,3.9,3.3,6.6,7.2,6.6h453.7c3.9,0,7.2-2.7,7.2-6.6
	v-18.1C489.9,358.8,472.9,336.4,448.3,329.5z"/>
</svg>
