<?xml version="1.0" encoding="utf-8"?>
<!-- Generator: Adobe Illustrator 21.0.0, SVG Export Plug-In . SVG Version: 6.00 Build 0)  -->
<svg version="1.1" id="Calque_1" xmlns="http://www.w3.org/2000/svg" xmlns:xlink="http://www.w3.org/1999/xlink" x="0px" y="0px"
	 viewBox="0 0 32 32" style="enable-background:new 0 0 32 32;" xml:space="preserve">
<style type="text/css">
	.st0{fill:#232321;}
</style>
<path class="st0" d="M17,2C8.7,2,2,8.7,2,17s6.7,15,15,15s15-6.7,15-15S25.3,2,17,2z M25,18h-7v7c0,0.6-0.4,1-1,1s-1-0.4-1-1v-7H9
	c-0.6,0-1-0.4-1-1s0.4-1,1-1h7V9c0-0.6,0.4-1,1-1s1,0.4,1,1v7h7c0.6,0,1,0.4,1,1S25.6,18,25,18z"/>
</svg>
