<?xml version="1.0" encoding="utf-8"?>
<!-- Generator: Adobe Illustrator 21.0.0, SVG Export Plug-In . SVG Version: 6.00 Build 0)  -->
<svg version="1.1" id="Calque_1" xmlns="http://www.w3.org/2000/svg" xmlns:xlink="http://www.w3.org/1999/xlink" x="0px" y="0px"
	 viewBox="0 0 50 50" style="enable-background:new 0 0 50 50;" xml:space="preserve">
<style type="text/css">
	.st0{fill:#232321;}
</style>
<path class="st0" d="M20.5,32.2c0.5,0.4,0.5,1.2,0,1.6L6.3,48.2c-0.6,0.6-1.6,0.6-2.2,0L1.9,46c-0.6-0.6-0.6-1.6,0-2.2l14.3-14.4
	c0.4-0.4,1.2-0.4,1.6,0l0.1,0.1l1.9-1.9c0.4,0.5,0.8,0.9,1.2,1.3c0.4,0.4,0.9,0.8,1.3,1.2l-1.9,1.9L20.5,32.2z M44,5.8
	c-6.1-6.1-16-6-22,0.1c-6.1,6.1-6,16,0.1,22c6.1,6,16,6,22-0.1C50.1,21.8,50.1,11.9,44,5.8z M42.6,26.4c-2.6,2.6-6,4-9.6,4
	c-3.6,0-7-1.4-9.6-3.9c-5.3-5.3-5.3-13.9-0.1-19.2c2.6-2.6,6-4,9.6-4c3.6,0,7,1.4,9.5,3.9c2.6,2.6,4,5.9,4,9.6
	C46.6,20.5,45.2,23.9,42.6,26.4z"/>
<path class="st0" d="M41.5,8.3c-2.3-2.3-5.3-3.5-8.5-3.5c-3.2,0-6.3,1.3-8.6,3.6c-2.3,2.3-3.5,5.3-3.5,8.5c0,3.2,1.3,6.3,3.6,8.5
	c2.3,2.3,5.3,3.5,8.5,3.5c3.2,0,6.3-1.3,8.5-3.6s3.5-5.3,3.5-8.6C45.1,13.6,43.8,10.6,41.5,8.3z M23.8,17.1l-1.4,0
	c-0.1-3.7,1.8-7.2,4.9-9.2l0.8,1.2C25.3,10.9,23.7,13.8,23.8,17.1z M32.8,7.7c-1.1,0-2.3,0.3-3.3,0.7L29,7c1.2-0.5,2.5-0.8,3.9-0.8
	H33l0,1.4C33,7.7,32.8,7.7,32.8,7.7z"/>
</svg>
